<svg class="absolute top-0 left-0 w-full h-full" viewBox="0 0 1200 800" fill="none" xmlns="http://www.w3.org/2000/svg" preserveAspectRatio="xMidYMid slice"><defs><filter id="blur" x="-100%" y="-100%" width="300%" height="300%"><feGaussianBlur in="SourceGraphic" stdDeviation="10"></feGaussianBlur></filter><filter id="grainy" x="-100%" y="-100%" width="300%" height="300%"><feGaussianBlur in="SourceGraphic" stdDeviation="10" result="blurred"></feGaussianBlur><feTurbulence baseFrequency="0.8" numOctaves="3" result="noise"></feTurbulence><feColorMatrix in="noise" type="saturate" values="0"></feColorMatrix><feComponentTransfer in="noise" result="monoNoise"><feFuncA type="discrete" tableValues="0.02 0.05 0.08"></feFuncA></feComponentTransfer><feBlend in="blurred" in2="monoNoise" mode="multiply"></feBlend></filter></defs><path fill="#dc2626" fill-opacity="0.32" filter="url(#grainy)" d="M-100,150 C50,80 200,220 350,120 C500,20 650,180 800,100 C950,20 1100,160 1200,250 C1300,340 1200,480 1050,580 C900,680 750,620 600,560 C450,500 300,440 150,380 C0,320 -100,240 -100,150 Z"></path><path fill="#ea580c" fill-opacity="0.30" filter="url(#grainy)" d="M200,300 C350,220 500,380 650,280 C800,180 950,340 1100,260 C1250,180 1300,320 1250,440 C1200,560 1050,600 900,580 C750,560 600,520 450,480 C300,440 150,400 100,340 C50,280 150,260 200,300 Z"></path><path fill="#f59e0b" fill-opacity="0.26" filter="url(#blur)" d="M50,500 C200,420 350,580 500,480 C650,380 800,540 950,460 C1100,380 1150,520 1100,640 C1050,760 900,800 750,780 C600,760 450,720 300,680 C150,640 0,600 -50,540 C-100,480 0,460 50,500 Z"></path><path fill="#0f766e" fill-opacity="0.22" filter="url(#blur)" d="M800,50 C950,20 1100,120 1250,80 C1400,40 1500,140 1450,240 C1400,340 1250,380 1100,360 C950,340 800,300 650,260 C500,220 400,180 450,120 C500,60 650,80 800,50 Z"></path><path fill="#059669" fill-opacity="0.18" filter="url(#blur)" d="M-50,600 C100,560 250,680 400,640 C550,600 700,720 850,680 C1000,640 1050,760 1000,860 C950,960 800,1000 650,980 C500,960 350,920 200,880 C50,840 -100,800 -100,720 C-100,640 -100,620 -50,600 Z"></path></svg>